<?xml version="1.0" encoding="UTF-8" standalone="no"?>
<!-- Created with Inkscape (http://www.inkscape.org/) -->

<svg
   width="431.39624"
   height="500"
   viewBox="0 0 114.14025 132.29167"
   version="1.1"
   id="svg1"
   xml:space="preserve"
   xmlns="http://www.w3.org/2000/svg"
   xmlns:svg="http://www.w3.org/2000/svg"
   xmlns:rdf="http://www.w3.org/1999/02/22-rdf-syntax-ns#"
   xmlns:cc="http://creativecommons.org/ns#"
   xmlns:dc="http://purl.org/dc/elements/1.1/"><defs
     id="defs1" /><metadata
     id="metadata1"><rdf:RDF><cc:Work
         rdf:about=""><dc:format>image/svg+xml</dc:format><dc:type
           rdf:resource="http://purl.org/dc/dcmitype/StillImage" /></cc:Work></rdf:RDF></metadata><path
     style="fill:#037ff2;fill-opacity:1;stroke-width:1.55663"
     d="m 204.44383,131.15987 c -2.12406,-1.15288 -50.1052,-29.92477 -51.58519,-30.93306 l -1.54447,-1.052223 V 67.066723 34.958865 l 1.33854,-1.010327 c 0.7362,-0.555684 8.56664,-5.259325 17.40099,-10.452545 24.37242,-14.3271965 32.45693,-19.1097877 33.34915,-19.7286322 0.98866,-0.6856916 3.24269,-0.7326775 4.46589,-0.092983 1.32965,0.6952644 44.04027,25.6591242 47.64563,27.8483232 1.69894,1.031564 3.50598,2.249611 4.01565,2.706758 l 0.92669,0.831131 v 31.989296 c 0,29.954594 -0.0459,32.028821 -0.72076,32.610921 -0.81234,0.700623 -27.34864,16.694983 -39.70913,23.934153 -4.45439,2.60878 -9.13096,5.40345 -10.39239,6.2104 -2.81679,1.80184 -3.86335,2.07497 -5.1906,1.35457 z m -1.96908,-25.30024 -0.11581,-16.371518 -6.65153,-3.912672 c -3.65835,-2.151953 -6.80242,-3.974099 -6.98681,-4.049254 -0.18431,-0.0751 -3.25524,1.665537 -6.82407,3.868134 -3.56881,2.202598 -9.58375,5.872061 -13.36653,8.154376 -3.78277,2.282297 -6.80814,4.219261 -6.72303,4.304375 0.23795,0.237958 40.34331,24.293009 40.57747,24.338239 0.11334,0.022 0.15378,-7.32741 0.0902,-16.33168 z m 18.87886,9.13869 c 6.66941,-3.97786 16.70162,-9.95494 22.29386,-13.28242 l 10.16781,-6.049911 0.0248,-26.691153 0.0248,-26.691129 -1.56933,0.950027 c -0.86311,0.522507 -10.96282,6.602758 -22.44355,13.511664 l -20.87411,12.561666 -0.003,26.461867 c -0.002,14.554029 0.0542,26.461859 0.12379,26.461859 0.0696,0 5.58332,-3.25461 12.25276,-7.23247 z m -8.2573,-22.524235 0.003,-12.870564 2.05581,-1.087902 2.05584,-1.087902 v 5.259214 5.259215 l 3.89064,-2.112037 3.89066,-2.112012 0.12489,-5.531938 0.1249,-5.531912 1.9563,-1.148724 1.95634,-1.148752 0.002,7.298462 c 8.3e-4,4.014153 0.12132,9.915403 0.26766,13.113938 l 0.26602,5.815476 -1.93362,1.133185 c -1.06347,0.623235 -2.01584,1.050895 -2.11635,0.950375 -0.32673,-0.32671 -0.54757,-2.926216 -0.57593,-6.778893 l -0.0278,-3.772706 -3.90973,2.12527 -3.90976,2.125241 -0.003,5.580958 -0.003,5.580993 -1.86437,0.9058 c -1.0254,0.49815 -1.95207,0.90576 -2.05928,0.90576 -0.10728,0 -0.19338,-5.791743 -0.19146,-12.870545 z m 20.16114,-0.737215 c -0.87141,-0.871378 -1.63099,-2.49854 -1.63099,-3.493791 0,-0.533896 3.58495,-2.952605 3.87545,-2.614712 0.0723,0.08418 0.34848,0.570016 0.61367,1.079705 1.415,2.719685 6.56205,-1.101602 6.70784,-4.980051 0.0955,-2.538293 -1.49626,-3.432035 -3.78356,-2.1245 -1.55071,0.88648 -1.64869,0.793747 -1.63178,-1.54447 0.0138,-2.042798 0.10453,-2.223724 1.62482,-3.274847 2.06517,-1.427886 2.89663,-2.721529 2.9679,-4.617757 0.16039,-4.263028 -4.69428,-3.011969 -5.90698,1.52227 -0.4125,1.542324 -0.78371,1.978976 -2.50456,2.946333 -1.11115,0.624593 -2.10089,1.055001 -2.19946,0.956463 -0.35297,-0.352996 0.64082,-4.448824 1.47729,-6.088474 1.79415,-3.516762 6.60909,-6.977845 9.72102,-6.987611 2.90026,-0.0081 4.68475,3.135018 3.86227,6.80506 -0.46053,2.054901 -1.37776,4.098468 -2.32649,5.183371 -0.51788,0.592162 -0.44565,0.693779 0.64874,0.912641 2.70174,0.540334 3.62109,5.154074 1.78031,8.934538 -2.72746,5.601454 -10.66852,10.012841 -13.29549,7.385832 z m -60.09566,-8.838476 c 8.02776,-4.870235 14.92181,-8.854954 15.32011,-8.854954 0.58476,0 8.88379,4.683174 12.97598,7.322368 l 0.92667,0.597662 V 75.416941 68.870384 L 182.1341,56.732991 C 170.99633,50.057445 161.03454,44.108715 159.99673,43.513584 l -1.8869,-1.082015 V 67.0925 c 0,13.563518 0.10261,24.660931 0.22805,24.660903 0.12544,-5.6e-5 6.79618,-3.9848 14.82394,-8.855009 z m 76.46268,-46.131991 c 0.0452,-0.224474 -3.93965,-2.7944 -8.85508,-5.711133 -10.52413,-6.245003 -31.30128,-18.378599 -31.47104,-18.378737 -0.0649,-2.8e-5 -0.0688,9.869903 -0.008,21.933241 l 0.11004,21.933322 -3.53063,2.223669 -3.53062,2.223671 1.89964,1.109439 1.89963,1.109469 21.70208,-13.017518 c 11.93602,-7.159597 21.73902,-13.201059 21.78416,-13.425423 z m -50.42396,18.377389 3.19975,-1.995343 0.0952,-20.235903 c 0.0523,-11.129763 0.0341,-20.23593 -0.0404,-20.23593 -0.1513,0 -5.55486,3.168221 -26.54277,15.563016 l -14.32269,8.458548 16.99977,10.193052 c 9.34987,5.606185 17.09244,10.205402 17.20569,10.220477 0.11334,0.0165 1.64581,-0.87047 3.40568,-1.967917 z m 137.95493,37.372993 c -7.7864,-1.116379 -12.65637,-5.68418 -13.87728,-13.01623 l -0.29148,-1.750404 h 4.46994 4.46998 l 0.7201,2.027419 c 1.24815,3.514342 4.46971,5.291346 8.79046,4.84878 3.16321,-0.324003 5.41539,-1.638194 6.35527,-3.708445 1.34785,-2.96878 0.89703,-5.54077 -1.32127,-7.538177 -1.40299,-1.263244 -3.38632,-1.807429 -6.58736,-1.807429 h -2.82155 v -3.445458 -3.445458 l 2.88257,-0.206318 c 4.92893,-0.352666 7.75959,-3.141922 7.30263,-7.195881 -0.35604,-3.15884 -2.94853,-5.064284 -6.89032,-5.064284 -3.88454,0 -6.02071,1.553822 -7.21922,5.251208 l -0.7009,2.162242 h -4.51922 -4.51925 l 0.28412,-1.750403 c 1.39335,-8.584512 10.33928,-14.534726 19.6748,-13.086264 8.16164,1.266326 14.02068,7.361349 13.3474,13.884991 -0.30364,2.941766 -2.12012,6.133534 -4.51305,7.929931 l -1.88913,1.418205 1.51398,0.694961 c 1.96223,0.90073 4.3793,3.444743 5.25358,5.52952 0.88908,2.12007 0.8784,6.523255 -0.022,9.235348 -1.52478,4.59069 -6.70544,8.316025 -12.63547,9.085951 -3.46628,0.450042 -3.75723,0.447875 -7.25687,-0.0539 z m 54.8174,-0.09408 c -2.54758,-0.836221 -4.41799,-2.122272 -5.61331,-3.859607 -1.52028,-2.209557 -1.93487,-3.546553 -1.9246,-6.206435 0.0248,-6.423482 4.24502,-9.528707 14.6119,-10.751458 7.2567,-0.855918 6.79567,-0.697355 6.79567,-2.337364 0,-3.179583 -2.18798,-5.109097 -5.79351,-5.109097 -2.34966,0 -4.31068,1.028179 -5.08892,2.668188 -0.35728,0.752924 -0.6496,1.579324 -0.6496,1.836453 0,0.324854 -1.22527,0.431506 -4.01559,0.349611 l -4.01562,-0.117738 0.13892,-1.647436 c 0.33039,-3.921338 3.04217,-7.364926 7.01894,-8.913081 1.80605,-0.703105 3.22034,-0.906783 6.43352,-0.926479 6.26021,-0.03851 9.89334,1.35551 12.40754,4.760337 1.84517,2.498843 2.12871,4.634263 2.35593,17.743854 l 0.21237,12.252766 h -4.0901 -4.09009 l -0.0489,-1.750403 c -0.0276,-0.962707 -0.007,-2.0209 0.0377,-2.351532 0.0476,-0.330659 -0.71804,0.207694 -1.70157,1.195986 -0.98356,0.988456 -2.59128,2.154759 -3.57275,2.591823 -2.3098,1.028611 -7.12471,1.321229 -9.4081,0.571749 z m 10.54186,-7.39447 c 0.91834,-0.607703 2.05265,-1.862888 2.53112,-2.800755 1.02218,-2.003624 1.64029,-6.440289 0.82725,-5.937809 -0.28035,0.173307 -2.73672,0.650095 -5.45864,1.059651 -3.83264,0.576672 -5.16262,0.945404 -5.89646,1.634836 -1.89292,1.778299 -1.50666,5.221006 0.74446,6.63555 1.83339,1.152053 5.00898,0.893055 7.25227,-0.591473 z m 60.07189,7.377111 c -8.75605,-2.526188 -13.45499,-11.759557 -11.25842,-22.122723 1.84212,-8.690807 8.36548,-13.581978 17.36538,-13.020489 7.60046,0.474172 12.23681,4.768341 13.9675,12.936586 0.32801,1.548238 0.59964,3.880651 0.60357,5.183151 l 0.007,2.368174 H 471.5337 459.79572 v 1.04287 c 0,1.278402 1.02013,3.797188 1.97203,4.869191 0.96009,1.081217 3.73044,2.305536 5.2355,2.31376 2.45737,0.01376 4.50272,-0.869643 6.2739,-2.708764 l 1.74344,-1.810318 h 3.91957 c 4.54148,0 4.68071,0.172757 2.92683,3.633978 -1.2773,2.520602 -4.21607,5.217373 -7.14853,6.559926 -2.82282,1.292289 -8.94788,1.673289 -12.13201,0.754657 z m 11.6243,-21.835996 c 0,-2.249582 -2.64029,-5.378878 -5.09636,-6.040223 -4.02499,-1.083832 -7.59171,1.059346 -9.31757,5.598758 l -0.39256,1.032442 h 7.40327 c 6.15682,0 7.40322,-0.09931 7.40322,-0.590977 z M 281.04959,68.469357 V 44.77361 l 4.4275,0.116913 c 3.17035,0.08362 4.44208,0.262986 4.47893,0.631719 0.0283,0.283178 0.0746,4.595641 0.10291,9.583312 l 0.0515,9.068425 9.57568,-0.110587 9.57569,-0.110589 0.1106,-9.575664 0.11058,-9.575693 h 4.31692 4.3169 v 23.6818 23.681828 h -4.52329 -4.52324 l 0.26462,-10.29643 0.26465,-10.296429 h -9.74463 -9.74463 v 10.296429 10.29643 h -4.53045 -4.53043 z m 81.95972,6.383345 V 57.540245 l 4.22155,0.117464 4.22152,0.117464 v 2.780096 c 0,1.529065 0.022,2.780095 0.0481,2.780068 0.0275,-2.8e-5 0.5378,-0.73983 1.13615,-1.643971 0.59832,-0.904169 1.78129,-2.099851 2.62881,-2.657102 1.79828,-1.182314 5.04032,-1.996279 6.49608,-1.630931 0.99957,0.250882 1.01679,0.327798 1.01679,4.535065 v 4.279863 h -2.61226 c -3.47491,0 -5.85363,1.221899 -7.2723,3.73565 -1.00977,1.789219 -1.03214,2.021011 -1.1587,12.017895 l -0.12903,10.193491 h -4.2984 -4.2984 z m 64.62251,16.192149 c -1.98629,-5.168847 -11.90475,-32.693555 -11.90475,-33.036869 0,-0.283892 1.59088,-0.438908 4.5039,-0.438908 h 4.50387 l 4.27921,12.919806 4.27922,12.919808 4.2934,-12.816841 4.29339,-12.816839 4.47574,-0.117465 4.47572,-0.117462 -0.26327,1.049114 c -0.25362,1.010216 -7.31841,20.768422 -10.45927,29.25126 l -1.52495,4.118606 -5.2561,0.115263 -5.25607,0.115264 z M 487.39038,68.483304 V 44.801477 h 4.32449 4.32451 v 23.681827 23.681827 h -4.32451 -4.32449 z"
     id="path6" /><path
     style="fill:#037ff2;fill-opacity:1;stroke-width:1.56408"
     d="M 55.675504,130.6611 C 53.541277,129.5027 5.3305212,100.5931 3.8434522,99.579971 L 2.2915942,98.522719 V 66.261211 33.999697 l 1.344943,-1.015161 C 4.3762582,32.426194 12.244179,27.700044 21.120803,22.481971 45.609842,8.0862105 53.733037,3.2807317 54.629554,2.658925 55.622927,1.9699518 57.887748,1.9227422 59.116797,2.5655 c 1.335998,0.6985918 44.250893,25.781918 47.873463,27.981594 1.70705,1.0365 3.52272,2.260376 4.03483,2.719711 l 0.93112,0.835108 v 32.142381 c 0,30.097927 -0.0461,32.182099 -0.7242,32.766985 -0.81623,0.703972 -27.479313,16.774881 -39.898961,24.048691 -4.47569,2.62126 -9.174639,5.42931 -10.442121,6.24013 -2.830247,1.81046 -3.881816,2.08491 -5.215424,1.36105 z M 53.697009,105.23975 53.580731,88.789891 46.897357,84.858501 C 43.2215,82.69625 40.062386,80.865383 39.877098,80.789868 c -0.185275,-0.07545 -3.270805,1.673509 -6.856706,3.886646 -3.585903,2.213138 -9.629634,5.900161 -13.430509,8.193401 -3.800879,2.293207 -6.840715,4.239454 -6.755191,4.324968 0.239091,0.239108 40.53638,24.409287 40.771658,24.454727 0.113821,0.0221 0.154595,-7.36247 0.09066,-16.40986 z m 18.969174,9.18245 c 6.701338,-3.99691 16.78159,-10.0026 22.400562,-13.34599 l 10.216305,-6.078872 0.026,-26.818884 0.026,-26.81886 -1.57682,0.954573 c -0.86726,0.525008 -11.015125,6.634355 -22.550831,13.576324 l -20.974009,12.62178 -0.0028,26.588496 c -0.0015,14.623693 0.0544,26.588513 0.12433,26.588513 0.06993,0 5.61007,-3.27019 12.311409,-7.26708 z m -8.296795,-22.632043 0.0033,-12.932154 2.065661,-1.093109 2.065664,-1.093107 v 5.284382 5.284382 l 3.909264,-2.122145 3.909269,-2.122116 0.125546,-5.558414 0.125548,-5.558384 1.965686,-1.154222 1.965687,-1.15425 0.0015,7.333391 c 8.34e-4,4.033362 0.121817,9.962852 0.268833,13.176696 l 0.267314,5.843313 -1.94285,1.138588 c -1.068566,0.626239 -2.025492,1.05594 -2.126503,0.954945 -0.328266,-0.328285 -0.550167,-2.940228 -0.578689,-6.811349 l -0.02786,-3.790755 -3.928439,2.135443 -3.928439,2.135408 -0.003,5.607658 -0.003,5.607712 -1.873301,0.91013 c -1.030316,0.50054 -1.961428,0.9101 -2.069144,0.9101 -0.107712,0 -0.194287,-5.819458 -0.192351,-12.932143 z m 20.257605,-0.740735 c -0.875562,-0.87555 -1.638788,-2.510503 -1.638788,-3.510518 0,-0.53645 3.602123,-2.966734 3.894009,-2.627223 0.07269,0.08459 0.350158,0.572744 0.616612,1.084871 1.421774,2.732707 6.593439,-1.106873 6.739949,-5.003884 0.0959,-2.550438 -1.50342,-3.448457 -3.801657,-2.134665 -1.558143,0.890722 -1.65659,0.797545 -1.639606,-1.551862 0.01492,-2.052572 0.105032,-2.234366 1.632605,-3.290519 2.075058,-1.434718 2.910488,-2.734552 2.982118,-4.639855 0.161,-4.283428 -4.716754,-3.026382 -5.935281,1.529554 -0.414479,1.549707 -0.787446,1.988448 -2.516544,2.960434 -1.116475,0.627582 -2.110965,1.060049 -2.209983,0.96104 -0.35468,-0.354685 0.643881,-4.470113 1.484357,-6.117611 1.802715,-3.533591 6.640731,-7.011236 9.767531,-7.021049 2.91413,-0.0083 4.70711,3.15002 3.8807,6.837625 -0.46272,2.064735 -1.38433,4.118082 -2.33761,5.208176 -0.52032,0.594994 -0.44774,0.697099 0.65187,0.917008 2.71462,0.54292 3.63834,5.178741 1.78879,8.977295 -2.74047,5.628264 -10.719498,10.060753 -13.359072,7.421183 z M 24.243746,82.168644 c 8.066177,-4.893542 14.993223,-8.89733 15.393438,-8.89733 0.587547,0 8.9263,4.705585 13.038063,7.357409 l 0.931113,0.600522 V 74.651388 68.073503 L 33.258995,55.878025 C 22.067946,49.170533 12.058466,43.193336 11.015701,42.595356 L 9.1197722,41.508163 v 24.778945 c 0,13.628429 0.103098,24.778947 0.229113,24.778919 0.126017,-5.5e-5 6.8286998,-4.003869 14.8948748,-8.897383 z M 101.07223,35.815886 c 0.0453,-0.225548 -3.958425,-2.807773 -8.897315,-5.738463 -10.574527,-6.274887 -31.4511,-18.466551 -31.621671,-18.466689 -0.06528,-2.8e-5 -0.06902,9.917134 -0.0085,22.038202 l 0.110473,22.038285 -3.547516,2.234311 -3.547514,2.23431 1.908732,1.114751 1.908729,1.11478 21.805943,-13.079815 C 91.176825,42.111699 101.02661,36.041324 101.07197,35.815886 Z m -50.665149,18.465334 3.215065,-2.004892 0.09555,-20.332742 c 0.05255,-11.183024 0.03419,-20.332769 -0.04074,-20.332769 -0.152163,0 -5.581434,3.183383 -26.669799,15.637494 l -14.391223,8.499026 17.081115,10.24183 c 9.394614,5.633015 17.174229,10.254241 17.288032,10.269389 0.113832,0.01658 1.653695,-0.874637 3.42198,-1.977336 z"
     id="path6-9" /><path
     style="fill:#037ff2;fill-opacity:1;stroke-width:1.56408"
     d="m -95.924583,130.40681 c -2.13422,-1.1584 -50.344987,-30.06801 -51.832057,-31.081141 l -1.55186,-1.057252 V 66.006909 33.745395 l 1.34495,-1.015161 c 0.73972,-0.558342 8.60764,-5.284492 17.48426,-10.502565 24.48904,-14.3957604 32.612247,-19.2012384 33.508757,-19.8230454 0.99338,-0.688973 3.2582,-0.736183 4.48725,-0.09342 1.33599,0.698592 44.25089,25.7819174 47.87346,27.9815934 1.70705,1.0365 3.52272,2.260376 4.03483,2.719711 l 0.93112,0.835108 v 32.142381 c 0,30.097927 -0.0461,32.182099 -0.7242,32.766985 -0.81623,0.703972 -27.479313,16.774888 -39.89896,24.048698 -4.47569,2.62126 -9.17464,5.42931 -10.44212,6.24013 -2.83025,1.81046 -3.88182,2.08491 -5.21543,1.36105 z m -1.97849,-25.42136 -0.11628,-16.449861 -6.683377,-3.93139 c -3.67586,-2.162251 -6.83497,-3.993118 -7.02026,-4.068633 -0.18528,-0.07545 -3.27081,1.673509 -6.85671,3.886646 -3.5859,2.213138 -9.62963,5.900161 -13.43051,8.193401 -3.80088,2.293207 -6.84071,4.239454 -6.75519,4.324968 0.23909,0.239108 40.536387,24.409289 40.771667,24.454729 0.11382,0.0221 0.15459,-7.36247 0.0907,-16.40986 z m 18.969173,9.18245 c 6.701338,-3.99691 16.78159,-10.0026 22.400562,-13.34599 l 10.216305,-6.078874 0.026,-26.818884 0.026,-26.81886 -1.57682,0.954573 c -0.86726,0.525008 -11.015125,6.634355 -22.550831,13.576324 l -20.974009,12.62178 -0.003,26.588496 c -0.001,14.623695 0.0544,26.588515 0.12433,26.588515 0.0699,0 5.61007,-3.27019 12.311409,-7.26708 z m -8.296793,-22.632045 0.003,-12.932154 2.06566,-1.093109 2.06566,-1.093107 v 5.284382 5.284382 l 3.909267,-2.122145 3.909269,-2.122116 0.125546,-5.558414 0.125548,-5.558384 1.965686,-1.154222 1.965687,-1.15425 0.0015,7.333391 c 8.34e-4,4.033362 0.121817,9.962852 0.268833,13.176696 l 0.267314,5.843313 -1.94285,1.138588 c -1.068566,0.626239 -2.025492,1.05594 -2.126503,0.954945 -0.328266,-0.328285 -0.550167,-2.940228 -0.578689,-6.811349 l -0.02786,-3.790755 -3.928439,2.135443 -3.928439,2.135408 -0.003,5.607658 -0.003,5.607714 -1.8733,0.91013 c -1.03032,0.50054 -1.96143,0.9101 -2.06915,0.9101 -0.10771,0 -0.19428,-5.81946 -0.19235,-12.932145 z M -66.97309,90.79512 c -0.875562,-0.87555 -1.638788,-2.510503 -1.638788,-3.510518 0,-0.53645 3.602123,-2.966734 3.894009,-2.627223 0.07269,0.08459 0.350158,0.572744 0.616612,1.084871 1.421774,2.732707 6.593439,-1.106873 6.739949,-5.003884 0.0959,-2.550438 -1.50342,-3.448457 -3.801657,-2.134665 -1.558143,0.890722 -1.65659,0.797545 -1.639606,-1.551862 0.01492,-2.052572 0.105032,-2.234366 1.632605,-3.290519 2.075058,-1.434718 2.910488,-2.734552 2.982118,-4.639855 0.161,-4.283428 -4.716754,-3.026382 -5.935281,1.529554 -0.414479,1.549707 -0.787446,1.988448 -2.516544,2.960434 -1.116475,0.627582 -2.110965,1.060049 -2.209983,0.96104 -0.35468,-0.354685 0.643881,-4.470113 1.484357,-6.117611 1.802715,-3.533591 6.640731,-7.011236 9.767531,-7.021049 2.91413,-0.0083 4.70711,3.15002 3.8807,6.837625 -0.46272,2.064735 -1.38433,4.118082 -2.33761,5.208176 -0.52032,0.594994 -0.44774,0.697099 0.65187,0.917008 2.71462,0.54292 3.63834,5.178741 1.78879,8.977295 -2.74047,5.628264 -10.719498,10.060753 -13.359072,7.421183 z m -60.38325,-8.880778 c 8.06617,-4.893542 14.99322,-8.89733 15.39343,-8.89733 0.58755,0 8.9263,4.705585 13.038077,7.357409 l 0.93111,0.600522 V 74.397086 67.819201 L -118.34109,55.623723 c -11.19105,-6.707492 -21.20053,-12.684689 -22.2433,-13.282669 l -1.89593,-1.087193 v 24.778945 c 0,13.628429 0.1031,24.778947 0.22912,24.778919 0.12601,-5.5e-5 6.82869,-4.003869 14.89487,-8.897383 z m 76.828487,-46.352758 c 0.0453,-0.225548 -3.958425,-2.807773 -8.897315,-5.738463 -10.574527,-6.274887 -31.451105,-18.466551 -31.621675,-18.466689 -0.0653,-2.8e-5 -0.069,9.917134 -0.008,22.038202 l 0.11048,22.038285 -3.54752,2.234311 -3.54751,2.23431 1.90873,1.114751 1.90873,1.11478 21.805941,-13.079815 c 11.992734,-7.193859 21.842519,-13.264234 21.887879,-13.489672 z m -50.665157,18.465334 3.215077,-2.004892 0.0956,-20.332742 c 0.0525,-11.183024 0.0342,-20.332769 -0.0407,-20.332769 -0.15217,0 -5.581447,3.183383 -26.669807,15.637494 l -14.39123,8.499026 17.08112,10.24183 c 9.39461,5.633015 17.17423,10.254241 17.28803,10.269389 0.11383,0.01658 1.6537,-0.874637 3.42198,-1.977336 z"
     id="path6-9-7" /></svg>
