<?xml version="1.0" encoding="UTF-8" standalone="no"?>
<!-- Created with Inkscape (http://www.inkscape.org/) -->

<svg
   width="1326.4973"
   height="499.74405"
   viewBox="0 0 350.96907 132.22395"
   version="1.1"
   id="svg1"
   xml:space="preserve"
   xmlns="http://www.w3.org/2000/svg"
   xmlns:svg="http://www.w3.org/2000/svg"
   xmlns:rdf="http://www.w3.org/1999/02/22-rdf-syntax-ns#"
   xmlns:cc="http://creativecommons.org/ns#"
   xmlns:dc="http://purl.org/dc/elements/1.1/"><defs
     id="defs1" /><metadata
     id="metadata1"><rdf:RDF><cc:Work
         rdf:about=""><dc:format>image/svg+xml</dc:format><dc:type
           rdf:resource="http://purl.org/dc/dcmitype/StillImage" /></cc:Work></rdf:RDF></metadata><path
     style="fill:#037ff2;fill-opacity:1;stroke-width:1.55663"
     d="M 55.227593,130.19897 C 53.103533,129.04609 5.122393,100.2742 3.642403,99.26591 L 2.097933,98.213687 V 66.105823 33.997965 l 1.33854,-1.010327 c 0.7362,-0.555684 8.56664,-5.259325 17.40099,-10.452545 24.37242,-14.3271961 32.45693,-19.1097873 33.34915,-19.7286318 0.98866,-0.6856916 3.24269,-0.7326775 4.46589,-0.092983 1.32965,0.6952644 44.040267,25.6591238 47.645627,27.8483228 1.69894,1.031564 3.50598,2.249611 4.01565,2.706758 l 0.92669,0.831131 v 31.989296 c 0,29.954594 -0.0459,32.028821 -0.72076,32.610921 -0.81234,0.700623 -27.348637,16.694983 -39.709127,23.934153 -4.45439,2.60878 -9.13096,5.40345 -10.39239,6.2104 -2.81679,1.80184 -3.86335,2.07497 -5.1906,1.35457 z m -1.96908,-25.30024 -0.11581,-16.371518 -6.65153,-3.912672 c -3.65835,-2.151953 -6.80242,-3.974099 -6.98681,-4.049254 -0.18431,-0.0751 -3.25524,1.665537 -6.82407,3.868134 -3.56881,2.202598 -9.58375,5.872061 -13.36653,8.154376 -3.78277,2.282297 -6.80814,4.219261 -6.72303,4.304375 0.23795,0.237958 40.34331,24.293009 40.57747,24.338239 0.11334,0.022 0.15378,-7.32741 0.0902,-16.33168 z m 18.87886,9.13869 c 6.66941,-3.97786 16.70162,-9.95494 22.29386,-13.28242 l 10.167807,-6.049911 0.0248,-26.691153 0.0248,-26.691129 -1.56933,0.950027 c -0.86311,0.522507 -10.962817,6.602758 -22.443547,13.511664 l -20.87411,12.561666 -0.003,26.461867 c -0.002,14.554029 0.0542,26.461859 0.12379,26.461859 0.0696,0 5.58332,-3.25461 12.25276,-7.23247 z m -8.2573,-22.524235 0.003,-12.870564 2.05581,-1.087902 2.05584,-1.087902 v 5.259214 5.259215 l 3.89064,-2.112037 3.89066,-2.112012 0.12489,-5.531938 0.1249,-5.531912 1.9563,-1.148724 1.95634,-1.148752 0.002,7.298462 c 8.3e-4,4.014153 0.12132,9.915403 0.26766,13.113938 l 0.26602,5.815476 -1.93362,1.133185 c -1.06347,0.623235 -2.01584,1.050895 -2.11635,0.950375 -0.32673,-0.32671 -0.54757,-2.926216 -0.57593,-6.778893 l -0.0278,-3.772706 -3.90973,2.12527 -3.90976,2.125241 -0.003,5.580958 -0.003,5.580993 -1.86437,0.9058 c -1.0254,0.49815 -1.95207,0.90576 -2.05928,0.90576 -0.10728,0 -0.19338,-5.791743 -0.19146,-12.870545 z m 20.16114,-0.737215 c -0.87141,-0.871378 -1.63099,-2.49854 -1.63099,-3.493791 0,-0.533896 3.58495,-2.952605 3.87545,-2.614712 0.0723,0.08418 0.34848,0.570016 0.61367,1.079705 1.415,2.719685 6.56205,-1.101602 6.70784,-4.980051 0.0955,-2.538293 -1.49626,-3.432035 -3.78356,-2.1245 -1.55071,0.88648 -1.64869,0.793747 -1.63178,-1.54447 0.0138,-2.042798 0.10453,-2.223724 1.62482,-3.274847 2.06517,-1.427886 2.89663,-2.721529 2.9679,-4.617757 0.16039,-4.263028 -4.69428,-3.011969 -5.90698,1.52227 -0.4125,1.542324 -0.78371,1.978976 -2.50456,2.946333 -1.11115,0.624593 -2.10089,1.055001 -2.19946,0.956463 -0.35297,-0.352996 0.64082,-4.448824 1.47729,-6.088474 1.79415,-3.516762 6.60909,-6.977845 9.72102,-6.987611 2.90026,-0.0081 4.68475,3.135018 3.86227,6.80506 -0.46053,2.054901 -1.37776,4.098468 -2.32649,5.183371 -0.51788,0.592162 -0.44565,0.693779 0.64874,0.912641 2.70174,0.540334 3.62109,5.154074 1.78031,8.934538 -2.72746,5.601454 -10.66852,10.012841 -13.29549,7.385832 z m -60.09566,-8.838476 c 8.02776,-4.870235 14.92181,-8.854954 15.32011,-8.854954 0.58476,0 8.88379,4.683174 12.97598,7.322368 l 0.92667,0.597662 V 74.456041 67.909484 L 32.917863,55.772091 C 21.780093,49.096545 11.818303,43.147815 10.780493,42.552684 l -1.8869,-1.082015 V 66.1316 c 0,13.563518 0.10261,24.660931 0.22805,24.660903 0.12544,-5.6e-5 6.79618,-3.9848 14.82394,-8.855009 z M 100.40823,35.805503 c 0.0452,-0.224474 -3.939647,-2.7944 -8.855077,-5.711133 -10.52413,-6.245003 -31.30128,-18.378599 -31.47104,-18.378737 -0.0649,-2.8e-5 -0.0688,9.869903 -0.008,21.933241 l 0.11004,21.933322 -3.53063,2.223669 -3.53062,2.223671 1.89964,1.109439 1.89963,1.109469 21.70208,-13.017518 C 90.560273,42.071329 100.36327,36.029867 100.40841,35.805503 Z m -50.423957,18.377389 3.19975,-1.995343 0.0952,-20.235903 c 0.0523,-11.129763 0.0341,-20.23593 -0.0404,-20.23593 -0.1513,0 -5.55486,3.168221 -26.54277,15.563016 l -14.32269,8.458548 16.99977,10.193052 c 9.34987,5.606185 17.09244,10.205402 17.20569,10.220477 0.11334,0.0165 1.64581,-0.87047 3.40568,-1.967917 z M 187.9392,91.555885 c -7.7864,-1.116379 -12.65637,-5.68418 -13.87728,-13.01623 l -0.29148,-1.750404 h 4.46994 4.46998 l 0.7201,2.027419 c 1.24815,3.514342 4.46971,5.291346 8.79046,4.84878 3.16321,-0.324003 5.41539,-1.638194 6.35527,-3.708445 1.34785,-2.96878 0.89703,-5.54077 -1.32127,-7.538177 -1.40299,-1.263244 -3.38632,-1.807429 -6.58736,-1.807429 h -2.82155 v -3.445458 -3.445458 l 2.88257,-0.206318 c 4.92893,-0.352666 7.75959,-3.141922 7.30263,-7.195881 -0.35604,-3.15884 -2.94853,-5.064284 -6.89032,-5.064284 -3.88454,0 -6.02071,1.553822 -7.21922,5.251208 l -0.7009,2.162242 h -4.51922 -4.51925 l 0.28412,-1.750403 c 1.39335,-8.584512 10.33928,-14.534726 19.6748,-13.086264 8.16164,1.266326 14.02068,7.361349 13.3474,13.884991 -0.30364,2.941766 -2.12012,6.133534 -4.51305,7.929931 l -1.88913,1.418205 1.51398,0.694961 c 1.96223,0.90073 4.3793,3.444743 5.25358,5.52952 0.88908,2.12007 0.8784,6.523255 -0.022,9.235348 -1.52478,4.59069 -6.70544,8.316025 -12.63547,9.085951 -3.46628,0.450042 -3.75723,0.447875 -7.25687,-0.0539 z m 54.8174,-0.09408 c -2.54758,-0.836221 -4.41799,-2.122272 -5.61331,-3.859607 -1.52028,-2.209557 -1.93487,-3.546553 -1.9246,-6.206435 0.0248,-6.423482 4.24502,-9.528707 14.6119,-10.751458 7.2567,-0.855918 6.79567,-0.697355 6.79567,-2.337364 0,-3.179583 -2.18798,-5.109097 -5.79351,-5.109097 -2.34966,0 -4.31068,1.028179 -5.08892,2.668188 -0.35728,0.752924 -0.6496,1.579324 -0.6496,1.836453 0,0.324854 -1.22527,0.431506 -4.01559,0.349611 l -4.01562,-0.117738 0.13892,-1.647436 c 0.33039,-3.921338 3.04217,-7.364926 7.01894,-8.913081 1.80605,-0.703105 3.22034,-0.906783 6.43352,-0.926479 6.26021,-0.03851 9.89334,1.35551 12.40754,4.760337 1.84517,2.498843 2.12871,4.634263 2.35593,17.743854 l 0.21237,12.252766 h -4.0901 -4.09009 l -0.0489,-1.750403 c -0.0276,-0.962707 -0.007,-2.0209 0.0377,-2.351532 0.0476,-0.330659 -0.71804,0.207694 -1.70157,1.195986 -0.98356,0.988456 -2.59128,2.154759 -3.57275,2.591823 -2.3098,1.028611 -7.12471,1.321229 -9.4081,0.571749 z m 10.54186,-7.39447 c 0.91834,-0.607703 2.05265,-1.862888 2.53112,-2.800755 1.02218,-2.003624 1.64029,-6.440289 0.82725,-5.937809 -0.28035,0.173307 -2.73672,0.650095 -5.45864,1.059651 -3.83264,0.576672 -5.16262,0.945404 -5.89646,1.634836 -1.89292,1.778299 -1.50666,5.221006 0.74446,6.63555 1.83339,1.152053 5.00898,0.893055 7.25227,-0.591473 z m 60.07189,7.377111 c -8.75605,-2.526188 -13.45499,-11.759557 -11.25842,-22.122723 1.84212,-8.690807 8.36548,-13.581978 17.36538,-13.020489 7.60046,0.474172 12.23681,4.768341 13.9675,12.936586 0.32801,1.548238 0.59964,3.880651 0.60357,5.183151 l 0.007,2.368174 h -11.73792 -11.73798 v 1.04287 c 0,1.278402 1.02013,3.797188 1.97203,4.869191 0.96009,1.081217 3.73044,2.305536 5.2355,2.31376 2.45737,0.01376 4.50272,-0.869643 6.2739,-2.708764 l 1.74344,-1.810318 h 3.91957 c 4.54148,0 4.68071,0.172757 2.92683,3.633978 -1.2773,2.520602 -4.21607,5.217373 -7.14853,6.559926 -2.82282,1.292289 -8.94788,1.673289 -12.13201,0.754657 z m 11.6243,-21.835996 c 0,-2.249582 -2.64029,-5.378878 -5.09636,-6.040223 -4.02499,-1.083832 -7.59171,1.059346 -9.31757,5.598758 l -0.39256,1.032442 h 7.40327 c 6.15682,0 7.40322,-0.09931 7.40322,-0.590977 z M 131.83335,67.508457 V 43.81271 l 4.4275,0.116913 c 3.17035,0.08362 4.44208,0.262986 4.47893,0.631719 0.0283,0.283178 0.0746,4.595641 0.10291,9.583312 l 0.0515,9.068425 9.57568,-0.110587 9.57569,-0.110589 0.1106,-9.575664 0.11058,-9.575693 h 4.31692 4.3169 v 23.6818 23.681828 h -4.52329 -4.52324 l 0.26462,-10.29643 0.26465,-10.296429 h -9.74463 -9.74463 v 10.296429 10.29643 h -4.53045 -4.53043 z m 81.95972,6.383345 V 56.579345 l 4.22155,0.117464 4.22152,0.117464 v 2.780096 c 0,1.529065 0.022,2.780095 0.0481,2.780068 0.0275,-2.8e-5 0.5378,-0.73983 1.13615,-1.643971 0.59832,-0.904169 1.78129,-2.099851 2.62881,-2.657102 1.79828,-1.182314 5.04032,-1.996279 6.49608,-1.630931 0.99957,0.250882 1.01679,0.327798 1.01679,4.535065 v 4.279863 h -2.61226 c -3.47491,0 -5.85363,1.221899 -7.2723,3.73565 -1.00977,1.789219 -1.03214,2.021011 -1.1587,12.017895 l -0.12903,10.193491 h -4.2984 -4.2984 z m 64.62251,16.192149 c -1.98629,-5.168847 -11.90475,-32.693555 -11.90475,-33.036869 0,-0.283892 1.59088,-0.438908 4.5039,-0.438908 h 4.50387 l 4.27921,12.919806 4.27922,12.919808 4.2934,-12.816841 4.29339,-12.816839 4.47574,-0.117465 4.47572,-0.117462 -0.26327,1.049114 c -0.25362,1.010216 -7.31841,20.768422 -10.45927,29.25126 l -1.52495,4.118606 -5.2561,0.115263 -5.25607,0.115264 z M 338.17414,67.522404 V 43.840577 h 4.32449 4.32451 v 23.681827 23.681827 h -4.32451 -4.32449 z"
     id="path6" /></svg>
